<svg xmlns="http://www.w3.org/2000/svg" viewBox="0 0 32 32">
  <rect width="32" height="32" rx="8" fill="#f8efd9"/>
  <path d="M12 7h8l1 3v2H11v-2l1-3Z" fill="#d8b26a"/>
  <path d="M10 11h12v13c0 2.2-1.8 4-4 4h-4c-2.2 0-4-1.8-4-4V11Z" fill="#9fd3ef"/>
  <path d="M10 13h12v3H10Z" fill="#d7f0ff" opacity=".75"/>
  <path d="M12 20c0-1.7 1.4-3 3-3 .3 0 .7 0 1 .2.6-1.2 1.8-2 3.2-2 2 0 3.6 1.6 3.6 3.6V19c1 .3 1.7 1.3 1.7 2.4 0 1.4-1.1 2.6-2.6 2.6h-9.2c-1.5 0-2.6-1.2-2.6-2.6 0-.7.3-1.3.9-1.8Z" fill="#fff"/>
</svg>
