<svg xmlns="http://www.w3.org/2000/svg" viewBox="0 0 32 32">
  <rect width="32" height="32" rx="8" fill="#f8efd9"/>
  <path d="M8 20c0-6.4 5.1-11.5 11.5-11.5 1.8 0 3.5.4 5.1 1.2l-3.1 3.1c-.7-.2-1.4-.3-2.1-.3-4.1 0-7.5 3.3-7.5 7.5 0 .7.1 1.5.3 2.1L9.1 25C8.4 23.5 8 21.8 8 20Z" fill="#36a26a"/>
  <path d="M13 24c0-5 4-9 9-9 1 0 2 .2 2.9.5L22 18.4c-.3-.1-.7-.1-1-.1-2.6 0-4.7 2.1-4.7 4.7 0 .3 0 .7.1 1l-2.9 2.9c-.3-1-.5-1.9-.5-2.9Z" fill="#6fe5a7"/>
  <circle cx="22.6" cy="9.4" r="2.4" fill="#b8fff5"/>
</svg>
