<svg xmlns="http://www.w3.org/2000/svg" viewBox="0 0 32 32">
  <rect width="32" height="32" rx="8" fill="#f8efd9"/>
  <path d="M8 18h7.5c1.7 0 3 1.3 3 3v2H8v-5Z" fill="#d47d3b"/>
  <path d="M18.5 18h4.5c.8 0 1.6.3 2.1.9l1.9 2.1v2H18.5v-5Z" fill="#f0a159"/>
  <path d="M11 14.5h5.5V18H11v-3.5Z" fill="#b45f2d"/>
  <path d="M18 12c1.8 0 3.4.8 4.4 2.2l-1.7.7c-.7-.8-1.7-1.2-2.7-1.2-1 0-1.9.4-2.6 1.1L13 13.9c1-1.2 2.5-1.9 5-1.9Z" fill="#fff"/>
  <path d="M22.4 9.8 25 8l-.9 2.7 2.6 1.4-2.9.2-.6 2.8-1.3-2.6-2.9.3 2.1-1.9-1.1-2.7 2.5 1.6Z" fill="#f5f3ff"/>
</svg>
